{"title":"Inglourious Basterds","uid":5344615,"size":1465785852,"categoryP":"video","categoryS":"movies","magnet":"?xt=urn:btih:c1a40ae8ff32df2e5acf51bee1d39ffc0e7e1534&amp;dn=Inglourious+Basterds&amp;tr=udp%3A%2F%2Ftracker.openbittorrent.com%3A80&amp;tr=udp%3A%2F%2Fopen.demonii.com%3A1337&amp;tr=udp%3A%2F%2Ftracker.coppersurfer.tk%3A6969&amp;tr=udp%3A%2F%2Fexodus.desync.com%3A6969","seeders":1,"leechers":0,"uploader":"UN1TEDK1LLER","files":-1,"time":1265590743,"description":"Inglourious Basterds (2009) DVDRip UN1TEDK1LLER\n\n\n\nFormat                           : AVI\nFormat/Info                      : Audio Video Interleave\nFile size                        : 1.37 GiB\nDuration                         : 2h 33mn\nOverall bit rate                 : 1 276 Kbps\nOriginal source form             : UN1TEDK1LLER\n\n\n\nVideo\nID                               : 0\nFormat                           : MPEG-4 Visual\nFormat profile                   : AdvancedSimple@L5\nFormat settings, BVOP            : Yes\nFormat settings, QPel            : No\nFormat settings, GMC             : No warppoints\nFormat settings, Matrix          : Default (MPEG)\nMuxing mode                      : Packed bitstream\nCodec ID                         : XVID\nCodec ID/Hint                    : XviD\nDuration                         : 2h 33mn\nBit rate                         : 883 Kbps\nWidth                            : 640 pixels\nHeight                           : 272 pixels\nDisplay aspect ratio             : 2.35:1\nFrame rate                       : 23.976 fps\nResolution                       : 24 bits\nColorimetry                      : 4:2:0\nScan type                        : Progressive\nBits/(Pixel*Frame)               : 0.212\nStream size                      : 967 MiB (69%)\n\n\n\nAudio\nID                               : 1\nFormat                           : AC-3\nFormat/Info                      : Audio Coding 3\nCodec ID                         : 2000\nDuration                         : 2h 32mn\nBit rate mode                    : Constant\nBit rate                         : 384 Kbps\nChannel(s)                       : 6 channels\nChannel positions                : Front: L C R, Surround: L R, LFE\nSampling rate                    : 48.0 KHz\nStream size                      : 420 MiB (30%)\nAlignment                        : Split accross interleaves\nInterleave, duration             : 42 ms (1.00 video frame)\nInterleave, preload duration     : 500 ms \n","torrent":{"xt":"urn:btih:c1a40ae8ff32df2e5acf51bee1d39ffc0e7e1534","amp;dn":"Inglourious+Basterds","amp;tr":["udp%3A%2F%2Ftracker.openbittorrent.com%3A80","udp%3A%2F%2Fopen.demonii.com%3A1337","udp%3A%2F%2Ftracker.coppersurfer.tk%3A6969","udp%3A%2F%2Fexodus.desync.com%3A6969"],"infoHash":"c1a40ae8ff32df2e5acf51bee1d39ffc0e7e1534","infoHashBuffer":{"type":"Buffer","data":[193,164,10,232,255,50,223,46,90,207,81,190,225,211,159,252,14,126,21,52]},"announce":[],"urlList":[]}}